Coordinates
version=1
nRows=10
nColumns=46
inDegrees=yes

Units are S.I. units (second, meters, Newtons, ...)
Angles are in degrees.

endheader
time	pelvis_tilt	pelvis_list	pelvis_rotation	pelvis_tx	pelvis_ty	pelvis_tz	bb_angle	bb_tx	bb_ty	bb_tz	hip_flexion_r	hip_adduction_r	hip_rotation_r	knee_angle_r	knee_angle_r_beta	ankle_angle_r	subtalar_angle_r	mtp_angle_r	crank_angle_r	hip_flexion_l	hip_adduction_l	hip_rotation_l	knee_angle_l	knee_angle_l_beta	ankle_angle_l	subtalar_angle_l	mtp_angle_l	crank_angle_l	lumbar_extension	lumbar_bending	lumbar_rotation	arm_flex_r	arm_add_r	arm_rot_r	elbow_flex_r	pro_sup_r	wrist_flex_r	wrist_dev_r	arm_flex_l	arm_add_l	arm_rot_l	elbow_flex_l	pro_sup_l	wrist_flex_l	wrist_dev_l
      2.50000000	    -17.90802384	     -3.71199398	     -5.97090240	      0.17094340	      1.03836330	     -0.31625890	      0.00000000	      0.50000000	      0.00000000	      0.25000000	     89.56466717	      1.02601612	      0.27432953	     88.21144589	      1.53958017	      6.90968848	     -6.19394203	      0.00000000	      0.00000000	     58.33683178	    -13.31626318	      0.27770469	     76.05669141	      1.32743968	    -16.09306167	    -12.77724285	      0.00000000	      0.00000000	    -54.00440593	     -1.11519772	      6.60458481	     89.78254546	     -0.70121927	     27.36129860	     29.84092315	     24.86929204	      0.00000000	      0.00000000	     89.48568401	     -1.72266107	     30.41597720	     28.97578072	     30.39353083	      0.00000000	      0.00000000
      2.50500000	    -18.00722928	     -3.67894538	     -6.12269071	      0.17095708	      1.03816451	     -0.31595625	      0.00000000	      0.50000000	      0.00000000	      0.25000000	     89.69180151	      1.20360297	      0.31942318	     88.21053528	      1.53956428	      6.91789722	     -6.16807789	      0.00000000	      0.00000000	     58.41168334	    -13.45969515	      0.19529975	     76.08829330	      1.32799124	    -15.87240817	    -12.45885730	      0.00000000	      0.00000000	    -53.86616579	     -1.24689188	      6.68943231	     89.77882503	     -0.55695238	     26.75198780	     29.68831809	     25.84599155	      0.00000000	      0.00000000	     89.49389823	     -1.58295256	     30.02889698	     28.55191270	     30.71936439	      0.00000000	      0.00000000
      2.51000000	    -18.01265203	     -3.75657799	     -6.09153036	      0.17093769	      1.03812095	     -0.31602119	      0.00000000	      0.50000000	      0.00000000	      0.25000000	     89.69228871	      1.17482016	      0.23945643	     88.21794156	      1.53969354	      6.92782746	     -6.11974457	      0.00000000	      0.00000000	     58.43616895	    -13.46111332	      0.31725797	     76.10811626	      1.32833722	    -15.79554297	    -12.41524954	      0.00000000	      0.00000000	    -53.82771042	     -1.17590041	      6.72556147	     89.78099114	     -0.99046519	     29.30071773	     30.82592170	     18.93065354	      0.00000000	      0.00000000	     89.49898450	     -1.94885737	     32.25536976	     29.15642206	     26.96899794	      0.00000000	      0.00000000
      2.51500000	    -17.97364202	     -3.67364347	     -6.12287738	      0.17098330	      1.03819287	     -0.31595907	      0.00000000	      0.50000000	      0.00000000	      0.25000000	     89.68289115	      1.20392025	      0.33490117	     88.23798469	      1.54004336	      6.84485397	     -6.17141065	      0.00000000	      0.00000000	     58.34617340	    -13.44002641	      0.20111793	     76.08439792	      1.32792325	    -15.74843721	    -12.45066350	      0.00000000	      0.00000000	    -53.87463668	     -1.27717146	      6.63058227	     89.77931902	     -0.63919542	     27.50327168	     30.10860822	     22.94813330	      0.00000000	      0.00000000	     89.48355611	     -1.76336423	     30.71073324	     29.05572204	     28.59007205	      0.00000000	      0.00000000
      2.52000000	    -18.01849849	     -3.74007839	     -6.08831237	      0.17095391	      1.03807509	     -0.31597911	      0.00000000	      0.50000000	      0.00000000	      0.25000000	     89.73566616	      1.17669248	      0.26497442	     88.25016692	      1.54025598	      6.83603772	     -6.14379027	      0.00000000	      0.00000000	     58.41939505	    -13.44646560	      0.30485196	     76.11149398	      1.32839617	    -15.70883164	    -12.46338616	      0.00000000	      0.00000000	    -53.80981067	     -1.20560422	      6.69648172	     89.78004608	     -0.65808789	     27.55073421	     29.90361440	     23.42910912	      0.00000000	      0.00000000	     89.49049411	     -1.64428290	     30.74530838	     28.73150693	     28.97643581	      0.00000000	      0.00000000
      2.52500000	    -18.01074124	     -3.78643053	     -6.12542942	      0.17098863	      1.03806206	     -0.31593936	      0.00000000	      0.50000000	      0.00000000	      0.25000000	     89.72495446	      1.22057293	      0.22899324	     88.24383716	      1.54014550	      6.85073435	     -6.05559855	      0.00000000	      0.00000000	     58.39907701	    -13.51822582	      0.32597373	     76.15414357	      1.32914054	    -15.48297935	    -12.27441290	      0.00000000	      0.00000000	    -53.81620569	     -1.19346729	      6.74658278	     89.77924882	     -0.54277985	     26.83556605	     29.61804979	     25.33458833	      0.00000000	      0.00000000	     89.49602958	     -1.60475114	     30.34341385	     28.39992346	     30.06299490	      0.00000000	      0.00000000
      2.53000000	    -18.00508460	     -3.77829118	     -6.11929207	      0.17098124	      1.03805443	     -0.31597008	      0.00000000	      0.50000000	      0.00000000	      0.25000000	     89.73209861	      1.21788712	      0.23324686	     88.24414396	      1.54015086	      6.76218628	     -6.16560298	      0.00000000	      0.00000000	     58.36807831	    -13.48757595	      0.33555104	     76.14240432	      1.32893566	    -15.41666285	    -12.31404967	      0.00000000	      0.00000000	    -53.80442309	     -1.21241891	      6.76416946	     89.78011967	     -1.06129254	     29.43105982	     30.70705101	     19.15040022	      0.00000000	      0.00000000	     89.49628225	     -1.95474214	     32.34793149	     29.08179199	     27.24476589	      0.00000000	      0.00000000
      2.53500000	    -18.02002715	     -3.78350674	     -6.13249704	      0.17099839	      1.03799637	     -0.31594981	      0.00000000	      0.50000000	      0.00000000	      0.25000000	     89.75937376	      1.23037984	      0.23181155	     88.25012823	      1.54025530	      6.73550556	     -6.11956859	      0.00000000	      0.00000000	     58.36623958	    -13.50421634	      0.32515876	     76.14979171	      1.32906459	    -15.33164529	    -12.30944546	      0.00000000	      0.00000000	    -53.76820078	     -1.22733582	      6.78189565	     89.78052724	     -1.19738945	     29.78849253	     30.05977429	     22.33317872	      0.00000000	      0.00000000	     89.49525475	     -1.95076715	     32.30885679	     28.78599277	     28.74052476	      0.00000000	      0.00000000
      2.54000000	    -18.03637589	     -3.77658129	     -6.13026960	      0.17100460	      1.03795577	     -0.31598108	      0.00000000	      0.50000000	      0.00000000	      0.25000000	     89.77731201	      1.22701160	      0.23741097	     88.24863442	      1.54022923	      6.72800632	     -6.15067380	      0.00000000	      0.00000000	     58.36376506	    -13.48328996	      0.32764844	     76.14947295	      1.32905903	    -15.28039057	    -12.35481464	      0.00000000	      0.00000000	    -53.73869960	     -1.22932257	      6.77156034	     89.78014743	     -1.27992195	     30.03672940	     29.93260813	     22.83607403	      0.00000000	      0.00000000	     89.49526457	     -2.00072122	     32.47579090	     28.69534802	     29.33075513	      0.00000000	      0.00000000
      2.54500000	    -18.04232854	     -3.79012683	     -6.13613585	      0.17102890	      1.03794678	     -0.31594962	      0.00000000	      0.50000000	      0.00000000	      0.25000000	     89.77619432	      1.24777185	      0.23522914	     88.24293896	      1.54012983	      6.74007445	     -6.14298148	      0.00000000	      0.00000000	     58.35864233	    -13.50277636	      0.33179855	     76.16375224	      1.32930825	    -15.19059650	    -12.30634621	      0.00000000	      0.00000000	    -53.74384468	     -1.21503911	      6.77342988	     89.77885893	     -1.03669471	     28.82222978	     29.79220775	     23.69597056	      0.00000000	      0.00000000	     89.48827966	     -1.85187618	     31.53743263	     28.53156284	     29.94728311	      0.00000000	      0.00000000
